<svg id="Layer_1" height="512" viewBox="0 0 150 150" width="512" xmlns="http://www.w3.org/2000/svg" data-name="Layer 1"><circle cx="75" cy="75" fill="#334d5c" r="64"/><path d="m110.79 77a12 12 0 0 0 .42-3.07 11.62 11.62 0 0 0 -11.62-11.61 11.33 11.33 0 0 0 -2.81.36 16.27 16.27 0 0 0 -29.72-5.54 13.77 13.77 0 0 0 -21.8 11.19 14 14 0 0 0 .26 2.67 15.92 15.92 0 1 0 11.89 29.45 13.75 13.75 0 0 0 16.92-.82 13.76 13.76 0 0 0 19.19-1.19 13.78 13.78 0 0 0 17.27-21.44z" fill="#d5d6db"/><path d="m110.79 74.46a12 12 0 0 0 .42-3.08 11.61 11.61 0 0 0 -11.62-11.61 11.82 11.82 0 0 0 -2.81.35 16.28 16.28 0 0 0 -29.72-5.54 13.77 13.77 0 0 0 -21.8 11.2 14 14 0 0 0 .26 2.69 15.92 15.92 0 1 0 11.89 29.45 13.75 13.75 0 0 0 16.92-.82 13.75 13.75 0 0 0 19.19-1.2 13.77 13.77 0 0 0 17.27-21.44z" fill="#e1e6e9"/><g fill="#27a2db"><path d="m91 72.53a20.73 20.73 0 0 0 -29.31 0l-2.37-2.37a24.08 24.08 0 0 1 34.05 0z"/><path d="m85.46 77.68a13 13 0 0 0 -18.31 0l-2.37-2.37a16.33 16.33 0 0 1 23 0z"/><path d="m80.53 83a6 6 0 0 0 -8.45 0l-2.37-2.36a9.33 9.33 0 0 1 13.19 0z"/><path d="m76.31 85.66a2.69 2.69 0 1 0 2.69 2.68 2.68 2.68 0 0 0 -2.69-2.68z"/></g></svg>